<svg xmlns="http://www.w3.org/2000/svg" width="72" height="72" viewBox="0 0 72 72">
  <defs>
    <linearGradient id="gradient-1" x1="0" y1="0" x2="1" y2="1">
      <stop offset="0%" stop-color="deeppink" />
      <stop offset="100%" stop-color="tomato" />
    </linearGradient>
  </defs>
  <path d="M 48 0 c 11.3137 0 16.9706 0 20.4853 3.5147 a 12.0000 12.0000 0 0 1 0.0000 0.0000 c 3.5147 3.5147 3.5147 9.1716 3.5147 20.4853 L 72 48 c 0 11.3137 0 16.9706 -3.5147 20.4853 a 12.0000 12.0000 0 0 1 -0.0000 0.0000 c -3.5147 3.5147 -9.1716 3.5147 -20.4853 3.5147 L 24 72 c -11.3137 0 -16.9706 0 -20.4853 -3.5147 a 12.0000 12.0000 0 0 1 -0.0000 -0.0000 c -3.5147 -3.5147 -3.5147 -9.1716 -3.5147 -20.4853 L 0 24 c 0 -11.3137 0 -16.9706 3.5147 -20.4853 a 12.0000 12.0000 0 0 1 0.0000 -0.0000 c 3.5147 -3.5147 9.1716 -3.5147 20.4853 -3.5147 Z" fill="url(#gradient-1)" />
</svg>
