<svg xmlns="http://www.w3.org/2000/svg" width="72" height="72" viewBox="0 0 72 72">
  <defs>
    <linearGradient id="gradient-1" x1="0" y1="0" x2="1" y2="1">
      <stop offset="0%" stop-color="hotpink" />
      <stop offset="100%" stop-color="deeppink" />
    </linearGradient>
  </defs>
  <path d="M 52.8 0 c 6.7206 0 10.0809 0 12.6479 1.3079 a 12.0000 12.0000 0 0 1 5.2442 5.2442 c 1.3079 2.5669 1.3079 5.9273 1.3079 12.6479 L 72 52.8 c 0 6.7206 0 10.0809 -1.3079 12.6479 a 12.0000 12.0000 0 0 1 -5.2442 5.2442 c -2.5669 1.3079 -5.9273 1.3079 -12.6479 1.3079 L 19.200000000000003 72 c -6.7206 0 -10.0809 0 -12.6479 -1.3079 a 12.0000 12.0000 0 0 1 -5.2442 -5.2442 c -1.3079 -2.5669 -1.3079 -5.9273 -1.3079 -12.6479 L 0 19.200000000000003 c 0 -6.7206 0 -10.0809 1.3079 -12.6479 a 12.0000 12.0000 0 0 1 5.2442 -5.2442 c 2.5669 -1.3079 5.9273 -1.3079 12.6479 -1.3079 Z" fill="url(#gradient-1)" />
</svg>
