<svg xmlns="http://www.w3.org/2000/svg" width="72" height="72" viewBox="0 0 72 72">
  <defs>
    <linearGradient id="gradient-1" x1="0" y1="0" x2="1" y2="1">
      <stop offset="0%" stop-color="pink" />
      <stop offset="100%" stop-color="hotpink" />
    </linearGradient>
  </defs>
  <path d="M 60 0 c 0.0000 0 0.0000 0 0.0000 0.0000 a 12.0000 12.0000 0 0 1 12.0000 12.0000 c 0.0000 0.0000 0.0000 0.0000 0.0000 0.0000 L 72 60 c 0 0.0000 0 0.0000 0.0000 0.0000 a 12.0000 12.0000 0 0 1 -12.0000 12.0000 c 0.0000 0.0000 0.0000 0.0000 0.0000 0.0000 L 12 72 c 0.0000 0 0.0000 0 0.0000 0.0000 a 12.0000 12.0000 0 0 1 -12.0000 -12.0000 c 0.0000 0.0000 0.0000 0.0000 0.0000 0.0000 L 0 12 c 0 0.0000 0 0.0000 0.0000 0.0000 a 12.0000 12.0000 0 0 1 12.0000 -12.0000 c 0.0000 0.0000 0.0000 0.0000 0.0000 0.0000 Z" fill="url(#gradient-1)" />
</svg>
